<?xml version="1.0" encoding="utf-8"?>
<!-- Generator: Adobe Illustrator 22.0.0, SVG Export Plug-In . SVG Version: 6.00 Build 0)  -->
<svg version="1.1" id="Capa_1" xmlns="http://www.w3.org/2000/svg" xmlns:xlink="http://www.w3.org/1999/xlink" x="0px" y="0px"
	 viewBox="0 0 180.3 65.2" style="enable-background:new 0 0 180.3 65.2;" xml:space="preserve">
<g>
	<g>
		<path style="fill:#004A57;" d="M144.3,36.9c-0.5-0.1-0.9-0.3-1.4-0.5c-0.5-0.2-1-0.5-1.4-0.7c-0.4-0.3-0.8-0.6-1-1
			c-0.3-0.4-0.4-0.8-0.4-1.3c0-0.6,0.1-1.1,0.4-1.5c0.3-0.4,0.6-0.8,1-1.1c0.4-0.3,0.9-0.5,1.4-0.7c0.5-0.2,1-0.2,1.5-0.2
			c0.3,0,0.7,0,1,0.1c0.4,0.1,0.7,0.1,1.1,0.3c0.3,0.1,0.7,0.3,1,0.6c0.3,0.2,0.6,0.6,0.9,0.9c0.1,0.1,0.1,0.3,0.1,0.5
			c0,0.2-0.1,0.4-0.2,0.5c-0.1,0.1-0.3,0.2-0.5,0.2c-0.3,0-0.5-0.1-0.6-0.4c-0.2-0.3-0.4-0.5-0.6-0.7c-0.2-0.2-0.5-0.3-0.7-0.4
			c-0.3-0.1-0.5-0.1-0.8-0.2c-0.3,0-0.5,0-0.7,0c-0.3,0-0.6,0-1,0.1c-0.3,0.1-0.6,0.2-0.9,0.4c-0.3,0.2-0.5,0.4-0.7,0.7
			c-0.2,0.3-0.3,0.6-0.3,1.1c0,0.3,0.1,0.6,0.4,0.8c0.3,0.2,0.6,0.5,1,0.6c0.4,0.2,0.8,0.3,1.2,0.5c0.4,0.1,0.8,0.3,1,0.4
			c0.6,0.2,1.1,0.4,1.6,0.7c0.5,0.2,0.9,0.5,1.2,0.9c0.3,0.3,0.6,0.7,0.8,1.2c0.2,0.4,0.3,1,0.3,1.6c0,0.6-0.1,1.2-0.4,1.7
			c-0.3,0.5-0.6,1-1,1.4c-0.4,0.4-0.9,0.7-1.5,0.9c-0.6,0.2-1.1,0.3-1.8,0.3c-0.4,0-0.9-0.1-1.3-0.2c-0.5-0.1-0.9-0.3-1.3-0.5
			c-0.4-0.2-0.8-0.5-1.1-0.7c-0.3-0.3-0.6-0.6-0.8-1c-0.1-0.1-0.1-0.2-0.1-0.4c0-0.2,0.1-0.3,0.2-0.5c0.1-0.2,0.3-0.2,0.5-0.2
			c0.3,0,0.5,0.1,0.6,0.4c0.1,0.3,0.3,0.5,0.6,0.7c0.3,0.2,0.6,0.4,0.9,0.5c0.3,0.1,0.6,0.3,1,0.3c0.3,0.1,0.6,0.1,0.9,0.1
			c0.4,0,0.8-0.1,1.2-0.2c0.4-0.2,0.7-0.4,1-0.6c0.3-0.3,0.5-0.6,0.7-0.9c0.2-0.4,0.3-0.7,0.3-1.2c0-0.4-0.1-0.8-0.2-1.1
			c-0.2-0.3-0.4-0.6-0.7-0.8c-0.3-0.2-0.6-0.4-1-0.6C145.2,37.2,144.7,37.1,144.3,36.9z"/>
		<path style="fill:#004A57;" d="M150.6,43.3c0-0.3,0.1-0.5,0.3-0.7c0.2-0.2,0.4-0.3,0.7-0.3c0.3,0,0.5,0.1,0.7,0.3
			c0.2,0.2,0.3,0.4,0.3,0.7c0,0.3-0.1,0.5-0.3,0.7c-0.2,0.2-0.4,0.3-0.7,0.3c-0.3,0-0.5-0.1-0.7-0.3
			C150.7,43.8,150.6,43.6,150.6,43.3z"/>
		<path style="fill:#004A57;" d="M154.4,30.4c0-0.2,0.1-0.4,0.2-0.5c0.1-0.1,0.3-0.2,0.5-0.2h3.7c0.5,0,1.1,0.1,1.5,0.3
			c0.5,0.2,0.9,0.5,1.2,0.8c0.4,0.4,0.6,0.8,0.8,1.2c0.2,0.5,0.3,1,0.3,1.5c0,0.5-0.1,0.9-0.3,1.4c-0.2,0.4-0.4,0.8-0.7,1.2
			c-0.3,0.3-0.6,0.6-1,0.9c-0.4,0.2-0.8,0.4-1.3,0.5L163,43c0,0.1,0.1,0.2,0.1,0.3c0,0.1,0.1,0.2,0.1,0.3c0,0.1-0.1,0.3-0.2,0.4
			c-0.1,0.2-0.3,0.2-0.5,0.2c-0.1,0-0.3,0-0.4-0.1c-0.1-0.1-0.2-0.2-0.3-0.3l-3.9-6.4h-2.1v6.1c0,0.2-0.1,0.4-0.2,0.5
			c-0.1,0.1-0.3,0.2-0.5,0.2c-0.2,0-0.4-0.1-0.5-0.2c-0.1-0.1-0.2-0.3-0.2-0.5V30.4z M155.9,31.1v5h3c0.3,0,0.7-0.1,1-0.2
			c0.3-0.1,0.6-0.3,0.8-0.5c0.2-0.2,0.4-0.5,0.5-0.8c0.1-0.3,0.2-0.6,0.2-1c0-0.3-0.1-0.7-0.2-1c-0.1-0.3-0.3-0.6-0.5-0.8
			c-0.2-0.2-0.5-0.4-0.8-0.5c-0.3-0.1-0.6-0.2-1-0.2H155.9z"/>
		<path style="fill:#004A57;" d="M164.8,43.3c0-0.3,0.1-0.5,0.3-0.7c0.2-0.2,0.4-0.3,0.7-0.3c0.3,0,0.5,0.1,0.7,0.3
			c0.2,0.2,0.3,0.4,0.3,0.7c0,0.3-0.1,0.5-0.3,0.7c-0.2,0.2-0.4,0.3-0.7,0.3c-0.3,0-0.5-0.1-0.7-0.3
			C164.9,43.8,164.8,43.6,164.8,43.3z"/>
		<path style="fill:#004A57;" d="M168.4,30.4c0-0.2,0.1-0.4,0.2-0.5c0.1-0.1,0.3-0.2,0.5-0.2c0.2,0,0.4,0.1,0.5,0.2
			c0.1,0.1,0.2,0.3,0.2,0.5v12.5h5.8c0.2,0,0.4,0.1,0.5,0.2c0.1,0.1,0.2,0.3,0.2,0.5c0,0.2-0.1,0.4-0.2,0.5
			c-0.1,0.1-0.3,0.2-0.5,0.2h-6.5c-0.2,0-0.4-0.1-0.5-0.2c-0.1-0.1-0.2-0.3-0.2-0.5V30.4z"/>
	</g>
	<g>
		<path style="fill:#788E9A;" d="M12.4,51.2c-0.4-0.4-0.9-0.8-1.5-1c-0.6-0.2-1.2-0.4-1.8-0.4H6.7c-0.2,0-0.3,0.1-0.4,0.2
			c-0.1,0.1-0.2,0.3-0.2,0.4v8.1c0,0.2,0.1,0.3,0.2,0.4c0.1,0.1,0.3,0.2,0.4,0.2h2.4c0.6,0,1.2-0.1,1.8-0.4c0.6-0.2,1.1-0.6,1.5-1
			c0.4-0.4,0.8-0.9,1-1.5c0.2-0.6,0.4-1.2,0.4-1.8c0-0.6-0.1-1.2-0.4-1.8C13.2,52.1,12.9,51.6,12.4,51.2z M9.2,58H7.3v-7h1.8
			c0.5,0,0.9,0.1,1.4,0.3c0.4,0.2,0.8,0.4,1.1,0.7c0.3,0.3,0.6,0.7,0.7,1.1c0.2,0.4,0.3,0.9,0.3,1.4c0,0.5-0.1,0.9-0.3,1.4
			c-0.2,0.4-0.4,0.8-0.7,1.1c-0.3,0.3-0.7,0.6-1.1,0.8C10.1,57.9,9.6,58,9.2,58z"/>
		<path style="fill:#788E9A;" d="M24.8,52c-0.5,0-1,0.1-1.5,0.3c-0.3,0.2-0.6,0.4-0.9,0.6v-0.3c0-0.2-0.1-0.3-0.2-0.4
			C22.2,52,22,52,21.9,52c-0.2,0-0.3,0.1-0.4,0.2c-0.1,0.1-0.2,0.3-0.2,0.4v6c0,0.2,0.1,0.3,0.2,0.4c0.1,0.1,0.3,0.2,0.4,0.2
			c0.2,0,0.3-0.1,0.4-0.2c0.1-0.1,0.2-0.3,0.2-0.4l0-3.1c0-0.3,0.1-0.6,0.2-0.9c0.1-0.3,0.3-0.5,0.5-0.7c0.2-0.2,0.5-0.4,0.7-0.5
			c0.3-0.1,0.6-0.2,0.9-0.2c0.2,0,0.3-0.1,0.5-0.2c0.1-0.1,0.2-0.3,0.2-0.4c0-0.2-0.1-0.3-0.2-0.4C25.1,52,25,52,24.8,52z"/>
		<path style="fill:#788E9A;" d="M37.9,53.1c-0.3-0.3-0.7-0.6-1.1-0.8c-0.4-0.2-0.9-0.3-1.4-0.3c0,0,0,0,0,0c-0.5,0-1,0.1-1.4,0.3
			c-0.4,0.2-0.8,0.4-1.1,0.8c-0.3,0.3-0.6,0.7-0.8,1.1c-0.2,0.4-0.3,0.9-0.3,1.4c0,0.5,0.1,1,0.3,1.4c0.2,0.4,0.4,0.8,0.8,1.1
			c0.3,0.3,0.7,0.6,1.1,0.7c0.4,0.2,0.9,0.3,1.4,0.3c0.5,0,1-0.1,1.4-0.3c0.4-0.2,0.8-0.4,1.1-0.8c0.3-0.3,0.6-0.7,0.8-1.1
			c0.2-0.4,0.3-0.9,0.3-1.4c0-0.5-0.1-1-0.3-1.4C38.5,53.8,38.2,53.4,37.9,53.1z M35.4,58c-0.3,0-0.6-0.1-0.9-0.2
			c-0.3-0.1-0.5-0.3-0.8-0.5c-0.2-0.2-0.4-0.5-0.5-0.8c-0.1-0.3-0.2-0.6-0.2-0.9c0-0.3,0.1-0.6,0.2-0.9c0.1-0.3,0.3-0.5,0.5-0.8
			c0.2-0.2,0.5-0.4,0.8-0.5c0.3-0.1,0.6-0.2,0.9-0.2c0.3,0,0.6,0.1,0.9,0.2c0.3,0.1,0.5,0.3,0.8,0.5c0.2,0.2,0.4,0.5,0.5,0.8
			c0.1,0.3,0.2,0.6,0.2,0.9c0,0.3-0.1,0.6-0.2,0.9c-0.1,0.3-0.3,0.5-0.5,0.8c-0.2,0.2-0.5,0.4-0.8,0.5C36,57.9,35.7,58,35.4,58z"/>
		<path style="fill:#788E9A;" d="M52.3,52.1c-0.2,0-0.3,0.1-0.4,0.2c-0.1,0.1-0.2,0.3-0.2,0.4V53c-0.3-0.2-0.6-0.5-0.9-0.6
			c-0.5-0.2-0.9-0.3-1.5-0.3c-0.5,0-1,0.1-1.4,0.3c-0.4,0.2-0.8,0.4-1.1,0.8c-0.3,0.3-0.6,0.7-0.8,1.1c-0.2,0.4-0.3,0.9-0.3,1.4
			c0,0.5,0.1,1,0.3,1.4c0.2,0.4,0.4,0.8,0.8,1.1c0.3,0.3,0.7,0.6,1.1,0.7c0.4,0.2,0.9,0.3,1.4,0.3c0.5,0,1-0.1,1.5-0.3
			c0.3-0.2,0.6-0.4,0.9-0.6c0,0.3-0.1,0.6-0.2,0.9c-0.1,0.3-0.3,0.5-0.5,0.8c-0.2,0.2-0.5,0.4-0.8,0.5c-0.3,0.1-0.6,0.2-0.9,0.2
			c-0.3,0-0.6-0.1-0.9-0.2c-0.3-0.1-0.5-0.3-0.8-0.5c-0.1-0.1-0.2-0.2-0.4-0.2c-0.2,0-0.3,0.1-0.4,0.2c-0.1,0.1-0.2,0.3-0.2,0.4
			c0,0.2,0.1,0.3,0.2,0.4l0,0c0.3,0.3,0.7,0.6,1.1,0.7c0.4,0.2,0.9,0.3,1.4,0.3c0.5,0,1-0.1,1.4-0.3c0.4-0.2,0.8-0.4,1.1-0.8
			c0.3-0.3,0.6-0.7,0.8-1.1c0.2-0.4,0.3-0.9,0.3-1.4v-5.4c0-0.2-0.1-0.3-0.2-0.4C52.7,52.2,52.5,52.1,52.3,52.1z M49.4,58
			c-0.3,0-0.6-0.1-0.9-0.2c-0.3-0.1-0.5-0.3-0.8-0.5c-0.2-0.2-0.4-0.5-0.5-0.8c-0.1-0.3-0.2-0.6-0.2-0.9c0-0.3,0.1-0.6,0.2-0.9
			c0.1-0.3,0.3-0.5,0.5-0.8c0.2-0.2,0.5-0.4,0.8-0.5c0.3-0.1,0.6-0.2,0.9-0.2c0.3,0,0.6,0.1,0.9,0.2c0.3,0.1,0.5,0.3,0.8,0.5
			c0.2,0.2,0.4,0.5,0.5,0.7c0.1,0.3,0.2,0.6,0.2,0.9l0,0.2c0,0.3-0.1,0.6-0.2,0.9c-0.1,0.3-0.3,0.5-0.5,0.7
			c-0.2,0.2-0.5,0.4-0.8,0.5C50,57.9,49.7,58,49.4,58z"/>
		<path style="fill:#788E9A;" d="M65.1,52c-0.2,0-0.3,0.1-0.4,0.2c-0.1,0.1-0.2,0.3-0.2,0.4l0,3.9c0,0.2-0.1,0.4-0.1,0.6
			c-0.1,0.2-0.2,0.3-0.3,0.5c-0.1,0.1-0.3,0.2-0.5,0.3c-0.4,0.2-0.8,0.2-1.2,0c-0.2-0.1-0.3-0.2-0.5-0.3c-0.1-0.1-0.2-0.3-0.3-0.5
			c-0.1-0.2-0.1-0.4-0.1-0.6v-3.9c0-0.2-0.1-0.3-0.2-0.4c-0.1-0.1-0.3-0.2-0.4-0.2c-0.2,0-0.3,0.1-0.4,0.2c-0.1,0.1-0.2,0.3-0.2,0.4
			v3.9c0,0.4,0.1,0.7,0.2,1c0.1,0.3,0.3,0.6,0.6,0.9c0.2,0.2,0.5,0.4,0.9,0.6c0.3,0.1,0.7,0.2,1,0.2c0.3,0,0.7-0.1,1-0.2
			c0.2-0.1,0.4-0.2,0.6-0.3c0,0.1,0.1,0.2,0.2,0.3c0.1,0.1,0.3,0.2,0.4,0.2c0.2,0,0.3-0.1,0.4-0.2c0.1-0.1,0.2-0.3,0.2-0.4v-6
			c0-0.2-0.1-0.3-0.2-0.4C65.4,52.1,65.3,52,65.1,52z"/>
		<path style="fill:#788E9A;" d="M78.8,53.1c-0.3-0.3-0.7-0.6-1.1-0.8c-0.4-0.2-0.9-0.3-1.3-0.3c0,0,0,0,0,0c-0.5,0-1,0.1-1.4,0.3
			c-0.4,0.2-0.8,0.4-1.1,0.8c-0.3,0.3-0.6,0.7-0.8,1.1c-0.2,0.4-0.3,0.9-0.3,1.4c0,0.5,0.1,1,0.3,1.4c0.2,0.4,0.4,0.8,0.8,1.1
			c0.3,0.3,0.7,0.6,1.1,0.7c0.4,0.2,0.9,0.3,1.4,0.3c0.5,0,1-0.1,1.4-0.2c0.4-0.2,0.8-0.4,1.1-0.8c0.1-0.1,0.2-0.3,0.2-0.4
			s-0.1-0.3-0.2-0.4c-0.1-0.1-0.3-0.2-0.4-0.2c-0.2,0-0.3,0.1-0.4,0.2c-0.2,0.2-0.5,0.4-0.8,0.5C77,57.9,76.6,58,76.3,58
			c-0.3,0-0.6-0.1-0.8-0.2c-0.3-0.1-0.5-0.2-0.7-0.4c-0.2-0.2-0.4-0.4-0.5-0.6c-0.1-0.2-0.2-0.4-0.2-0.6h5.3c0.1,0,0.3,0,0.4-0.1
			c0.1-0.1,0.2-0.2,0.2-0.4c0-0.5-0.1-1-0.3-1.4C79.4,53.8,79.1,53.4,78.8,53.1z M78.6,55H74c0.1-0.2,0.1-0.4,0.2-0.6
			c0.1-0.2,0.3-0.4,0.5-0.6c0.2-0.2,0.4-0.3,0.7-0.4c0.5-0.2,1.1-0.2,1.7,0c0.3,0.1,0.5,0.2,0.7,0.4c0.2,0.2,0.4,0.4,0.5,0.6
			C78.5,54.6,78.6,54.8,78.6,55z"/>
		<path style="fill:#788E9A;" d="M90.3,52c-0.5,0-1,0.1-1.4,0.3c-0.3,0.2-0.6,0.4-0.9,0.6v-0.3c0-0.2-0.1-0.3-0.2-0.4
			C87.7,52,87.5,52,87.4,52c-0.2,0-0.3,0.1-0.4,0.2c-0.1,0.1-0.2,0.3-0.2,0.4v6c0,0.2,0.1,0.3,0.2,0.4c0.1,0.1,0.3,0.2,0.4,0.2
			c0.2,0,0.3-0.1,0.4-0.2c0.1-0.1,0.2-0.3,0.2-0.4l0-3.1c0-0.3,0.1-0.6,0.2-0.9c0.1-0.3,0.3-0.5,0.5-0.7c0.2-0.2,0.5-0.4,0.7-0.5
			c0.3-0.1,0.6-0.2,0.9-0.2c0.2,0,0.3-0.1,0.5-0.2c0.1-0.1,0.2-0.3,0.2-0.4c0-0.2-0.1-0.3-0.2-0.4C90.6,52,90.5,52,90.3,52z"/>
		<path style="fill:#788E9A;" d="M98.6,49.8c-0.2,0-0.4,0.1-0.5,0.2c-0.1,0.1-0.2,0.3-0.2,0.5c0,0.2,0.1,0.4,0.2,0.5
			c0.1,0.1,0.3,0.2,0.5,0.2c0.2,0,0.4-0.1,0.5-0.2c0.1-0.1,0.2-0.3,0.2-0.5c0-0.2-0.1-0.4-0.2-0.5C99,49.9,98.8,49.8,98.6,49.8z"/>
		<path style="fill:#788E9A;" d="M98.6,52c-0.2,0-0.3,0.1-0.4,0.2c-0.1,0.1-0.2,0.3-0.2,0.4v6c0,0.2,0.1,0.3,0.2,0.4
			c0.1,0.1,0.3,0.2,0.4,0.2c0.2,0,0.3-0.1,0.4-0.2c0.1-0.1,0.2-0.3,0.2-0.4v-6c0-0.2-0.1-0.3-0.2-0.4C98.9,52,98.8,52,98.6,52z"/>
		<path style="fill:#788E9A;" d="M112.4,53.1c-0.3-0.3-0.7-0.6-1.1-0.8c-0.4-0.2-0.9-0.3-1.4-0.3c-0.5,0-1,0.1-1.4,0.3
			c-0.4,0.2-0.8,0.4-1.1,0.8c-0.3,0.3-0.6,0.7-0.8,1.1c-0.2,0.4-0.3,0.9-0.3,1.4c0,0.5,0.1,1,0.3,1.4c0.2,0.4,0.4,0.8,0.8,1.1
			c0.3,0.3,0.7,0.6,1.1,0.7c0.4,0.2,0.9,0.3,1.4,0.3c0.5,0,1-0.1,1.5-0.4c0.3-0.2,0.6-0.4,0.9-0.7v0.5c0,0.2,0.1,0.3,0.2,0.4
			c0.1,0.1,0.3,0.2,0.4,0.2c0.2,0,0.3-0.1,0.4-0.2c0.1-0.1,0.2-0.3,0.2-0.4v-3c0-0.5-0.1-1-0.3-1.4
			C112.9,53.8,112.7,53.4,112.4,53.1z M109.8,58c-0.3,0-0.6-0.1-0.9-0.2c-0.3-0.1-0.5-0.3-0.8-0.5c-0.2-0.2-0.4-0.5-0.5-0.8
			c-0.1-0.3-0.2-0.6-0.2-0.9c0-0.3,0.1-0.6,0.2-0.9c0.1-0.3,0.3-0.5,0.5-0.8c0.2-0.2,0.5-0.4,0.8-0.5c0.3-0.1,0.6-0.2,0.9-0.2
			c0.3,0,0.6,0.1,0.9,0.2c0.3,0.1,0.5,0.3,0.8,0.5c0.2,0.2,0.4,0.5,0.5,0.8c0.1,0.3,0.2,0.6,0.2,0.9c0,0.3-0.1,0.7-0.2,1
			c-0.1,0.3-0.3,0.5-0.5,0.8c-0.2,0.2-0.5,0.4-0.7,0.5C110.5,57.9,110.2,58,109.8,58z"/>
		<path style="fill:#788E9A;" d="M137.5,56.7c-0.1,0-0.2,0-0.3,0.1c-0.1,0-0.2,0.1-0.2,0.2c-0.3,0.3-0.7,0.6-1.1,0.8
			c-0.4,0.2-0.9,0.3-1.4,0.3c-0.5,0-0.9-0.1-1.4-0.3c-0.4-0.2-0.8-0.4-1.1-0.7c-0.3-0.3-0.6-0.7-0.7-1.1c-0.2-0.4-0.3-0.9-0.3-1.4
			c0-0.5,0.1-0.9,0.3-1.4c0.2-0.4,0.4-0.8,0.7-1.1c0.3-0.3,0.7-0.6,1.1-0.7c0.4-0.2,0.9-0.3,1.4-0.3c0.5,0,1,0.1,1.4,0.3
			c0.4,0.2,0.8,0.5,1.1,0.8c0.1,0.1,0.3,0.2,0.4,0.2c0.1,0,0.3,0,0.4-0.1c0.1-0.1,0.2-0.2,0.2-0.4c0-0.1,0-0.2-0.1-0.3
			c0-0.1-0.1-0.2-0.2-0.2c-0.4-0.4-0.9-0.8-1.5-1c-0.6-0.3-1.2-0.4-1.8-0.4c-0.6,0-1.2,0.1-1.8,0.4c-0.6,0.2-1.1,0.6-1.5,1
			c-0.4,0.4-0.7,0.9-1,1.5c-0.2,0.6-0.4,1.2-0.4,1.8c0,0.6,0.1,1.3,0.4,1.8c0.2,0.6,0.6,1.1,1,1.5c0.4,0.4,0.9,0.7,1.5,1
			c0.6,0.2,1.2,0.4,1.8,0.4c0.7,0,1.3-0.1,1.9-0.4c0.6-0.3,1.1-0.6,1.5-1.1c0.1-0.1,0.2-0.3,0.2-0.5c0-0.1,0-0.3-0.1-0.4
			C137.8,56.8,137.7,56.7,137.5,56.7z"/>
		<path style="fill:#788E9A;" d="M150.4,52c-0.2,0-0.3,0.1-0.4,0.2c-0.1,0.1-0.2,0.3-0.2,0.4l0,3.9c0,0.2-0.1,0.4-0.1,0.6
			c-0.1,0.2-0.2,0.3-0.3,0.5c-0.1,0.1-0.3,0.2-0.5,0.3c-0.4,0.2-0.8,0.2-1.2,0c-0.2-0.1-0.3-0.2-0.5-0.3c-0.1-0.1-0.2-0.3-0.3-0.5
			c-0.1-0.2-0.1-0.4-0.1-0.6v-3.9c0-0.2-0.1-0.3-0.2-0.4c-0.1-0.1-0.3-0.2-0.4-0.2c-0.2,0-0.3,0.1-0.4,0.2c-0.1,0.1-0.2,0.3-0.2,0.4
			v3.9c0,0.4,0.1,0.7,0.2,1c0.1,0.3,0.3,0.6,0.6,0.9c0.2,0.2,0.5,0.4,0.9,0.6c0.3,0.1,0.7,0.2,1,0.2c0.3,0,0.7-0.1,1-0.2
			c0.2-0.1,0.4-0.2,0.6-0.3c0,0.1,0.1,0.2,0.2,0.3c0.1,0.1,0.3,0.2,0.4,0.2c0.2,0,0.3-0.1,0.4-0.2c0.1-0.1,0.2-0.3,0.2-0.4v-6
			c0-0.2-0.1-0.3-0.2-0.4C150.7,52.1,150.6,52,150.4,52z"/>
		<path style="fill:#788E9A;" d="M163,52c-0.1,0-0.2,0-0.3,0.1c-0.1,0.1-0.2,0.2-0.2,0.3l-1.8,4.6l-1.7-4.6c0-0.1-0.1-0.2-0.2-0.3
			c-0.1-0.1-0.2-0.1-0.3-0.1c-0.2,0-0.3,0.1-0.4,0.2c-0.1,0.1-0.1,0.2-0.1,0.4c0,0.1,0,0.2,0,0.2c0,0,0,0.1,0.1,0.3
			c0.1,0.2,0.1,0.4,0.3,0.7l0.1,0.3c0.2,0.5,0.4,1.1,0.7,1.8l1,2.7l-0.8,2.3c0,0,0,0.1,0,0.1c0,0,0,0.1,0,0.1c0,0.2,0.1,0.3,0.2,0.4
			c0.1,0.1,0.3,0.2,0.4,0.2c0.3,0,0.4-0.1,0.5-0.4l3.2-8.5c0-0.1,0.1-0.2,0.1-0.2c0-0.1-0.1-0.3-0.2-0.4C163.3,52.1,163.1,52,163,52
			z"/>
		<path style="fill:#788E9A;" d="M176.7,54.2c-0.2-0.4-0.5-0.8-0.8-1.1c-0.3-0.3-0.7-0.6-1.1-0.8c-0.4-0.2-0.9-0.3-1.4-0.3
			c0,0,0,0,0,0c-0.5,0-1,0.1-1.4,0.3c-0.4,0.2-0.8,0.4-1.1,0.8c-0.3,0.3-0.6,0.7-0.8,1.1c-0.2,0.4-0.3,0.9-0.3,1.4
			c0,0.5,0.1,1,0.3,1.4c0.2,0.4,0.4,0.8,0.8,1.1c0.3,0.3,0.7,0.6,1.1,0.7c0.4,0.2,0.9,0.3,1.4,0.3c0.5,0,1-0.1,1.4-0.3
			c0.4-0.2,0.8-0.4,1.1-0.8c0.3-0.3,0.6-0.7,0.8-1.1c0.2-0.4,0.3-0.9,0.3-1.4C177,55.1,176.9,54.6,176.7,54.2z M173.4,58
			c-0.3,0-0.6-0.1-0.9-0.2c-0.3-0.1-0.5-0.3-0.8-0.5c-0.2-0.2-0.4-0.5-0.5-0.8c-0.1-0.3-0.2-0.6-0.2-0.9c0-0.3,0.1-0.6,0.2-0.9
			c0.1-0.3,0.3-0.5,0.5-0.8c0.2-0.2,0.5-0.4,0.8-0.5c0.3-0.1,0.6-0.2,0.9-0.2c0.3,0,0.6,0.1,0.9,0.2c0.3,0.1,0.5,0.3,0.8,0.5
			c0.2,0.2,0.4,0.5,0.5,0.8c0.1,0.3,0.2,0.6,0.2,0.9c0,0.3-0.1,0.6-0.2,0.9c-0.1,0.3-0.3,0.5-0.5,0.8c-0.2,0.2-0.5,0.4-0.8,0.5
			C174.1,57.9,173.8,58,173.4,58z"/>
	</g>
	<path style="fill:#004A57;" d="M13.9,44.1H7.8c-1.1,0-2.1-0.9-2.1-2.1V23.9c0-1.1,0.9-2,2.1-2h6.1c6.8,0,11.1,4.9,11.1,11.1
		C24.9,39.2,20.6,44.1,13.9,44.1z M13.7,25.7H9.8v14.7h3.9c4.6,0,7.2-3,7.2-7.3C20.9,28.7,18.3,25.7,13.7,25.7z"/>
	<path style="fill:#004A57;" d="M31.2,44.4c-1.1,0-2.1-0.9-2.1-2.1V23.7c0-1.1,0.9-2.1,2.1-2.1c1.1,0,2,0.9,2,2.1v18.6
		C33.2,43.4,32.4,44.4,31.2,44.4z"/>
	<path style="fill:#004A57;" d="M46.7,44.5c-2.7,0-5.8-0.8-7.7-2.3c-0.7-0.5-1.1-1.2-1.1-1.9c0-1,0.7-1.7,1.7-1.7
		c0.4,0,0.7,0.1,1,0.3c1.8,1.1,3,2.1,6.2,2.1c3.2,0,4.5-1.3,4.5-2.8c0-1.6-1.3-2.5-5.3-3.5c-6-1.6-7.8-3.5-7.8-6.9
		c0-4.1,3.5-6.2,8.8-6.2c1.2,0,2.8,0.2,4.3,0.6c1.5,0.4,3.5,1.4,3.5,2.7c0,0.9-0.5,1.8-1.7,1.8c-0.3,0-0.5,0-0.8-0.2
		c-1.5-0.7-3.1-1.4-5.2-1.4c-3,0-4.8,0.8-4.8,2.5c0,1.6,1.3,2.2,5.3,3.4c4.6,1.3,7.8,2.6,7.8,6.9C55.3,41.8,52.4,44.5,46.7,44.5z"/>
	<path style="fill:#004A57;" d="M67.4,44.5c-2.7,0-5.8-0.8-7.7-2.3c-0.7-0.5-1.1-1.2-1.1-1.9c0-1,0.7-1.7,1.7-1.7
		c0.4,0,0.7,0.1,1,0.3c1.8,1.1,3,2.1,6.2,2.1c3.2,0,4.5-1.3,4.5-2.8c0-1.6-1.3-2.5-5.3-3.5c-6-1.6-7.8-3.5-7.8-6.9
		c0-4.1,3.5-6.2,8.8-6.2c1.2,0,2.8,0.2,4.3,0.6c1.5,0.4,3.5,1.4,3.5,2.7c0,0.9-0.5,1.8-1.7,1.8c-0.3,0-0.5,0-0.8-0.2
		c-1.5-0.7-3.1-1.4-5.2-1.4c-3,0-4.8,0.8-4.8,2.5c0,1.6,1.3,2.2,5.3,3.4c4.6,1.3,7.8,2.6,7.8,6.9C76,41.8,73,44.5,67.4,44.5z"/>
	<path style="fill:#004A57;" d="M120.1,44.4c-0.6,0-1.1-0.2-1.5-0.7l-11.5-14.5v13.3c0,1.1-0.9,1.9-1.9,1.9c-1,0-1.9-0.9-1.9-1.9
		V23.6c0-1,0.8-1.9,2-1.9c0.5,0,1.1,0.3,1.4,0.7l11.5,14.5V23.6c0-1,0.8-1.9,1.9-1.9c1.1,0,1.9,0.9,1.9,1.9v18.9
		C122,43.5,121.2,44.4,120.1,44.4z"/>
	<path style="fill:#004A57;" d="M99.3,41.7l-6-13.2c-0.3,0.5-0.9,0.9-1.6,0.9c-1,0-1.8-0.8-1.8-1.9c0-1,0.8-1.7,1.8-1.8
		c0.1,0,0.2,0,0.3,0l-1.3-3c-0.3-0.7-0.9-1.1-1.7-1.1c-0.9,0-1.4,0.4-1.7,1.1l-8.5,19c-0.1,0.3-0.2,0.5-0.2,0.8c0,1,0.7,1.9,1.9,1.9
		c0.3,0,1.8,0,3.9,0c-0.2-0.1-0.3-0.3-0.5-0.4c-0.2-0.4-0.2-0.9,0.1-1.5l2.6-4.4c0.4-0.7,0.7-1.9,0.7-2.7V34c0-0.1,0-0.3,0-0.4
		c-0.3-0.1-0.6-0.4-0.6-0.7c0-0.1,0-0.2,0-0.2c0-0.5,0.4-1,1-1h2.9c0.5,0,1,0.4,1,1c0,0.1,0,0.2-0.1,0.3c-0.1,0.3-0.3,0.5-0.6,0.6
		c0,0.1,0,0.3,0,0.4v1.3c0,0.8,0.3,2,0.7,2.7l2.6,4.4c0.3,0.5,0.3,1,0.1,1.5c-0.1,0.2-0.3,0.3-0.5,0.4c2.1,0,3.6,0,3.9,0
		c1.2,0,1.9-0.9,1.9-1.9C99.5,42.2,99.4,41.9,99.3,41.7z M89.6,30.8c-0.5,0-0.8-0.3-0.8-0.8c0-0.5,0.3-0.8,0.7-0.8
		c0.5,0,0.9,0.3,0.9,0.8C90.4,30.5,90.1,30.8,89.6,30.8z"/>
	<path style="fill:#E85451;" d="M100,22.8c0,1.7-1.4,3.1-3.1,3.1c-1.7,0-3.1-1.4-3.1-3.1c0-1.7,1.4-3.1,3.1-3.1
		C98.6,19.7,100,21.1,100,22.8z"/>
	<path style="fill:#FFFFFF;" d="M107.4,12.2C107.5,12.3,107.3,12.2,107.4,12.2L107.4,12.2z"/>
	<path style="fill:#FFFFFF;" d="M98.8,4.5C98.8,4.5,98.9,4.5,98.8,4.5C98.8,4.5,98.8,4.5,98.8,4.5z"/>
	<path style="fill:#E85451;" d="M101.7,3.7c-4,0-7.3,3.3-7.3,7.3c0,4,3.3,7.3,7.3,7.3c4,0,7.3-3.3,7.3-7.3
		C109,7,105.8,3.7,101.7,3.7z M104.3,9.7C104.3,9.7,104.3,9.7,104.3,9.7c0,0-0.2,0-0.2,0c-0.1,0-0.1,0.1-0.1,0.1
		c0,0-0.4-0.1-0.4-0.1c0.1,0,0.2,0,0.3,0c0,0-0.2-0.1-0.2-0.1C103.7,9.6,104.3,9.5,104.3,9.7z M103.5,4.4c0.1,0.1,0.4,0.4,0.4,0.4
		c0.1,0.1,0.3,0.4,0.4,0.5c-0.8,0.1-1.5-1.1-2.1-1c-0.2,0-0.1-0.2,0-0.2c0,0-0.1,0,0.1,0c0,0-0.1,0-0.1,0c0.1,0,0.3,0,0.5,0
		c0,0-0.1,0-0.1,0c0.1-0.1,0.6,0.2,0.6,0.2C103.1,4.2,103.5,4.4,103.5,4.4z M104.1,17.5c0,0-0.2,0.1-0.1,0.1c0,0-0.1,0-0.1,0
		C103.9,17.5,104.1,17.5,104.1,17.5C104.1,17.5,104.1,17.5,104.1,17.5z M104.9,16.1c-0.1,0.2-1.8,1.5-1.4,1.6
		c-1.2,0.6,1-2.9,0.5-3.4c-0.4-0.3-1.1-0.9-1-1.5c0.1-0.3-0.3-0.2,0-0.6c0.2-0.6,0.7-0.7,0.1-1.2c-0.1,0-1.3-0.2-1-0.7
		c-0.2,0.1-2.4-0.6-2.3-0.9c0,0-0.6-1.4-0.7-1.4c-0.1,0,0.2,0.9,0.3,1.1c-0.3-0.4-0.4-0.8-0.6-1.3c-0.2-0.4-0.5-0.6-0.1-1.2
		c0.1-0.2,0.3-0.5,0.3-0.5c0,0-0.2-0.1-0.3-0.2c0,0,0.2-0.7,0-0.6C99,5,98.3,5.2,98.2,5.1c0.1-0.1,0.2-0.1,0.2-0.1
		c-0.3,0-0.5,0.2-0.4,0.1c-0.1,0-0.1,0-0.2,0c0,0,0.6-0.3,0.7-0.4c-0.3,0.1,0.1-0.1,0.2-0.2c0,0,0.2,0,0.5-0.1
		c-0.1-0.5,3.3-0.6,3.3-0.3c-0.2,0-0.7-0.1-0.5,0c-0.6,0.2-2.4,0.1-2.7,0.3c0,0,0,0,0.1,0c0.2,0.2,0.6,0.3,0.7,0.3
		c0,0,1.1,0.2,1,0.1c0.3-0.1,0,0.1,0.2,0.1c0,0,0.1-0.6,0.2-0.4c-0.2,0.2,0,0.3,0.2,0.4c0-0.2,0.1-0.2,0.2-0.2c0,0.1,0,0.1,0,0.2
		c-1,0.2-0.6,1.1,0.5,1.3c0-0.6-0.3-1.3,0.6-0.7c0-0.1,1.8,0.5,0.3,0.8c0,0.1-0.1,0.2-0.1,0.3c0.2-0.2,0.5,0,0.8-0.1
		c0,0,0,0.1,0.1,0.1c-0.1,0-0.2,0.3-0.3,0.3c-0.1-0.1-0.1-0.2,0-0.2c-0.2,0-0.6,0.6-0.6,0.6c-0.1,0-0.1,0.7-0.1,0.6
		c0-0.1-0.2,0.9-0.4,1.2c0,0-0.3-0.6-0.4-0.6c-0.2,0.1-0.6,0-0.7,0c0,0.2-1.6,0.3-0.7,1.4c0.2,0,1.1-0.2,1.1-0.3
		c0,0.1-0.2,0.7-0.2,0.7c0.9,0,0.4,0.7,1.3,0.8c0.3,0,0.8-0.5,0.9-0.4c0,0-0.1,0.3,0,0.4c0.1,0,0-0.4,0.2-0.4c0.3,0.3,1.2,0,1,0.3
		c1,0.2,1.2,1,1.2,1.2c0-0.1,0.1-0.2,0.2-0.1c0,0.1,0,0.1,0,0.2c0.1-0.1,0.6,0,0.8,0.1C108.7,12.9,105.4,16.5,104.9,16.1z
		 M103.3,9.5c0,0-0.3-0.1-0.3-0.1c-0.1,0-0.2-0.1-0.3-0.1c-0.1-0.1-0.2,0.1-0.4,0.1c0-0.1,0.3-0.2,0.3-0.2c0.2,0,0.3,0.1,0.4,0.1
		c0.1,0,0.5,0.2,0.5,0.2c0,0-0.1,0-0.1,0.1c0,0-0.2,0-0.3,0C103.2,9.6,103.3,9.5,103.3,9.5z"/>
</g>
</svg>
